<svg width="24" height="34" viewBox="0 0 24 34" fill="none" xmlns="http://www.w3.org/2000/svg">
<g filter="url(#filter0_f_1_1136)">
<path d="M10.9461 26.0068C10.728 25.7397 10.4957 25.5008 10.3004 25.3426C10.105 25.1843 9.96271 25.1197 9.90467 25.1629L3.33863 30.0494C3.28058 30.0926 3.31157 30.2401 3.42479 30.4595C3.53801 30.6788 3.72417 30.952 3.94234 31.2191C4.1605 31.4861 4.39278 31.725 4.58809 31.8832C4.7834 32.0415 4.92574 32.1061 4.98378 32.0629L11.5498 27.1764C11.6079 27.1332 11.5769 26.9857 11.4637 26.7663C11.3504 26.547 11.1643 26.2738 10.9461 26.0068Z" fill="url(#paint0_linear_1_1136)"/>
</g>
<g filter="url(#filter1_d_1_1136)">
<path d="M2.39793 1.78954C2.5823 1.45716 2.98575 1 3.64012 1C4.29448 1 4.69794 1.45716 4.8823 1.78954C5.07946 2.14499 5.16012 2.55884 5.16012 2.9375V31.0625C5.16012 31.4412 5.07946 31.855 4.8823 32.2105C4.69793 32.5429 4.29448 33 3.64012 33C2.98576 33 2.5823 32.5429 2.39793 32.2105C2.20078 31.855 2.12012 31.4412 2.12012 31.0625V2.9375C2.12012 2.55884 2.20078 2.14499 2.39793 1.78954Z" fill="url(#paint1_linear_1_1136)"/>
</g>
<path fill-rule="evenodd" clip-rule="evenodd" d="M2.39793 1.78954C2.5823 1.45716 2.98575 1 3.64012 1C4.29448 1 4.69794 1.45716 4.8823 1.78954C5.07946 2.14499 5.16012 2.55884 5.16012 2.9375V31.0625C5.16012 31.4412 5.07946 31.855 4.8823 32.2105C4.69793 32.5429 4.29448 33 3.64012 33C2.98576 33 2.5823 32.5429 2.39793 32.2105C2.20078 31.855 2.12012 31.4412 2.12012 31.0625V2.9375C2.12012 2.55884 2.20078 2.14499 2.39793 1.78954ZM3.27242 2.27459C3.36994 2.09877 3.5022 2 3.64012 2C3.77803 2 3.91029 2.09877 4.00781 2.27459C4.10533 2.4504 4.16012 2.68886 4.16012 2.9375V31.0625C4.16012 31.3111 4.10533 31.5496 4.00781 31.7254C3.91029 31.9012 3.77803 32 3.64012 32C3.5022 32 3.36994 31.9012 3.27242 31.7254C3.1749 31.5496 3.12012 31.3111 3.12012 31.0625V2.9375C3.12012 2.68886 3.1749 2.4504 3.27242 2.27459Z" fill="url(#paint2_linear_1_1136)"/>
<path fill-rule="evenodd" clip-rule="evenodd" d="M5.8243 17.9253C4.61527 17.9273 3.43392 18.1645 2.39052 18.6071C2.08167 18.7381 1.7277 18.7055 1.44797 18.5203C1.16823 18.3351 1 18.022 1 17.6865V5.59909C1 5.16629 1.27842 4.78261 1.68987 4.64839C3.00163 4.22048 4.40421 4.0012 5.81734 4C5.8396 3.99998 5.86187 4.00071 5.88409 4.00218C7.57694 4.11399 9.22872 4.49486 10.7376 5.12641C12.0826 5.67834 13.5686 6.01185 15.1013 6.10084C16.8832 6.13178 18.6497 5.87315 20.2855 5.34526C20.5429 5.23955 20.8187 5.18832 21.0909 5.18832C21.3835 5.18832 21.6804 5.24754 21.954 5.37001C22.2229 5.49035 22.4774 5.67596 22.6713 5.93139C22.8675 6.19007 22.9925 6.51059 22.9998 6.86107L23 6.88183V17.4085C22.9985 17.784 22.8617 18.126 22.6462 18.3963C22.4338 18.6627 22.155 18.8496 21.8639 18.9633C21.8485 18.9693 21.8329 18.975 21.8172 18.9802C19.6988 19.6888 17.4157 20.0343 15.1203 19.9973C15.1105 19.9972 15.1007 19.9969 15.0909 19.9964C13.0784 19.9049 11.1073 19.4834 9.30656 18.7544L9.29749 18.7507C8.22711 18.3051 7.047 18.0232 5.8243 17.9253Z" fill="url(#paint3_linear_1_1136)"/>
<path fill-rule="evenodd" clip-rule="evenodd" d="M5.81818 5C7.40724 5.10496 8.95142 5.46243 10.3545 6.05016C11.8135 6.64931 13.4171 7.00692 15.0636 7.10032C16.9748 7.13573 18.874 6.8571 20.6364 6.28275C20.7746 6.22089 20.9313 6.18832 21.0909 6.18832C21.2505 6.18832 21.4073 6.22089 21.5455 6.28275C21.6815 6.34364 21.7949 6.43083 21.8746 6.53583C21.9543 6.64082 21.9975 6.76003 22 6.88183V17.4046C21.9995 17.5347 21.9525 17.6622 21.8643 17.773C21.776 17.8837 21.6499 17.9733 21.5 18.0319C19.4925 18.7034 17.3223 19.0327 15.1364 18.9974C13.2319 18.9108 11.3729 18.5121 9.68182 17.8275C8.49815 17.3347 7.20058 17.0281 5.86364 16.9253C4.88217 16.9231 3.91177 17.0608 3 17.3293C2.65756 17.4301 2.32338 17.5493 2 17.6865V5.59909C3.20877 5.20477 4.50676 5.00111 5.81818 5ZM5.8243 17.9253C4.61527 17.9273 3.43392 18.1645 2.39052 18.6071C2.08167 18.7381 1.7277 18.7055 1.44797 18.5203C1.16823 18.3351 1 18.022 1 17.6865V5.59909C1 5.16629 1.27842 4.78261 1.68987 4.64839C3.00163 4.22048 4.40421 4.0012 5.81734 4C5.8396 3.99998 5.86187 4.00071 5.88409 4.00217C7.57694 4.11399 9.22872 4.49486 10.7376 5.12641C12.0826 5.67834 13.5686 6.01185 15.1013 6.10084C16.8832 6.13178 18.6497 5.87315 20.2855 5.34526C20.5429 5.23955 20.8187 5.18832 21.0909 5.18832C21.3835 5.18832 21.6804 5.24754 21.954 5.37001C22.2229 5.49035 22.4774 5.67596 22.6713 5.93139C22.8675 6.19007 22.9925 6.51059 22.9998 6.86107L23 6.88183V17.4085C22.9985 17.784 22.8617 18.126 22.6462 18.3963C22.4338 18.6627 22.155 18.8496 21.8639 18.9633C21.8485 18.9693 21.8329 18.975 21.8172 18.9802C19.6988 19.6888 17.4157 20.0343 15.1203 19.9973C15.1105 19.9972 15.1007 19.9969 15.0909 19.9964C13.0784 19.9049 11.1073 19.4834 9.30656 18.7544L9.29749 18.7507C8.22711 18.3051 7.047 18.0232 5.8243 17.9253Z" fill="#25A8F9"/>
<defs>
<filter id="filter0_f_1_1136" x="2.31006" y="24.1498" width="10.2686" height="8.92621" filterUnits="userSpaceOnUse" color-interpolation-filters="sRGB">
<feFlood flood-opacity="0" result="BackgroundImageFix"/>
<feBlend mode="normal" in="SourceGraphic" in2="BackgroundImageFix" result="shape"/>
<feGaussianBlur stdDeviation="0.5" result="effect1_foregroundBlur_1_1136"/>
</filter>
<filter id="filter1_d_1_1136" x="1.12012" y="0" width="5.04004" height="34" filterUnits="userSpaceOnUse" color-interpolation-filters="sRGB">
<feFlood flood-opacity="0" result="BackgroundImageFix"/>
<feColorMatrix in="SourceAlpha" type="matrix" values="0 0 0 0 0 0 0 0 0 0 0 0 0 0 0 0 0 0 127 0" result="hardAlpha"/>
<feOffset/>
<feGaussianBlur stdDeviation="0.5"/>
<feColorMatrix type="matrix" values="0 0 0 0 0 0 0 0 0 0 0 0 0 0 0 0 0 0 0.25 0"/>
<feBlend mode="normal" in2="BackgroundImageFix" result="effect1_dropShadow_1_1136"/>
<feBlend mode="normal" in="SourceGraphic" in2="effect1_dropShadow_1_1136" result="shape"/>
</filter>
<linearGradient id="paint0_linear_1_1136" x1="10.9461" y1="26.0068" x2="4.19232" y2="31.525" gradientUnits="userSpaceOnUse">
<stop stop-color="#A5A5A5" stop-opacity="0.03"/>
<stop offset="1" stop-color="#868686"/>
</linearGradient>
<linearGradient id="paint1_linear_1_1136" x1="3.64012" y1="2" x2="3.64012" y2="32" gradientUnits="userSpaceOnUse">
<stop stop-color="white"/>
<stop offset="1" stop-color="#DADADA"/>
</linearGradient>
<linearGradient id="paint2_linear_1_1136" x1="3.64012" y1="1" x2="3.64012" y2="33" gradientUnits="userSpaceOnUse">
<stop stop-color="#AAAAAA"/>
<stop offset="0.838542" stop-color="#A3A3A3"/>
<stop offset="1" stop-color="#7A7A7A"/>
</linearGradient>
<linearGradient id="paint3_linear_1_1136" x1="2.33325" y1="11.6818" x2="22.3333" y2="11.6818" gradientUnits="userSpaceOnUse">
<stop stop-color="#87CFFC"/>
<stop offset="1" stop-color="#4DB8FA"/>
</linearGradient>
</defs>
</svg>
