<svg width="25" height="20" viewBox="0 0 25 20" fill="none" xmlns="http://www.w3.org/2000/svg">
<g clip-path="url(#clip0_1_306)">
<path d="M22.6484 10.457C24.8555 8.25 24.8555 4.67579 22.6484 2.46875C20.6953 0.515629 17.6172 0.261723 15.3711 1.86719L15.3086 1.91016C14.7461 2.3125 14.6172 3.09375 15.0195 3.65235C15.4219 4.21094 16.2031 4.34375 16.7617 3.94141L16.8242 3.89844C18.0781 3.00391 19.793 3.14454 20.8789 4.23438C22.1094 5.46485 22.1094 7.45704 20.8789 8.6875L16.4961 13.0781C15.2656 14.3086 13.2734 14.3086 12.043 13.0781C10.9531 11.9883 10.8125 10.2734 11.707 9.02344L11.75 8.96094C12.1523 8.39844 12.0195 7.61719 11.4609 7.21875C10.9023 6.82032 10.1172 6.94922 9.71875 7.50782L9.67578 7.57032C8.06641 9.8125 8.32031 12.8906 10.2734 14.8438C12.4805 17.0508 16.0547 17.0508 18.2617 14.8438L22.6484 10.457ZM2.35156 9.54297C0.144531 11.75 0.144531 15.3242 2.35156 17.5313C4.30469 19.4844 7.38281 19.7383 9.62891 18.1328L9.69141 18.0898C10.2539 17.6875 10.3828 16.9063 9.98047 16.3477C9.57812 15.7891 8.79688 15.6563 8.23828 16.0586L8.17578 16.1016C6.92188 16.9961 5.20703 16.8555 4.12109 15.7656C2.89062 14.5313 2.89062 12.5391 4.12109 11.3086L8.50391 6.92188C9.73438 5.69141 11.7266 5.69141 12.957 6.92188C14.0469 8.01172 14.1875 9.72657 13.293 10.9805L13.25 11.043C12.8477 11.6055 12.9805 12.3867 13.5391 12.7852C14.0977 13.1836 14.8828 13.0547 15.2812 12.4961L15.3242 12.4336C16.9336 10.1875 16.6797 7.10938 14.7266 5.15625C12.5195 2.94922 8.94531 2.94922 6.73828 5.15625L2.35156 9.54297Z" fill="black"/>
</g>
<defs>
<clipPath id="clip0_1_306">
<rect width="25" height="20" fill="white"/>
</clipPath>
</defs>
</svg>
